<svg width="28" height="28" viewBox="0 0 28 28" fill="none" xmlns="http://www.w3.org/2000/svg">
    <path fill-rule="evenodd" clip-rule="evenodd" d="M8.22602 0.665527H19.786C24.306 0.665527 27.3327 3.83886 27.3327 8.55886V19.4535C27.3327 24.1602 24.306 27.3322 19.786 27.3322H8.22602C3.70602 27.3322 0.666016 24.1602 0.666016 19.4535V8.55886C0.666016 3.83886 3.70602 0.665527 8.22602 0.665527ZM18.0127 17.9989C18.466 17.5469 18.466 16.8135 18.0127 16.3602L15.6393 13.9869L18.0127 11.6122C18.466 11.1602 18.466 10.4135 18.0127 9.96019C17.5593 9.50553 16.826 9.50553 16.3593 9.96019L13.9993 12.3322L11.626 9.96019C11.1593 9.50553 10.426 9.50553 9.97268 9.96019C9.51935 10.4135 9.51935 11.1602 9.97268 11.6122L12.346 13.9869L9.97268 16.3469C9.51935 16.8135 9.51935 17.5469 9.97268 17.9989C10.1993 18.2255 10.506 18.3469 10.7993 18.3469C11.106 18.3469 11.3993 18.2255 11.626 17.9989L13.9993 15.6402L16.3727 17.9989C16.5993 18.2402 16.8927 18.3469 17.186 18.3469C17.4927 18.3469 17.786 18.2255 18.0127 17.9989Z" fill="white"/>
</svg>
